PathFileType	4	(x/y/z)	S06_PSF_T08
DataRate	CameraRate	NumFrames	NumMarkers	Units	OrigDataRate	OrigDataStartFrame	OrigNumFrames
240	240	11	51	mm	240	51	407
Frame#	Time	Sternum			R.Acromium			L.Acromium			Top.Head			R.ASIS			L.ASIS			R.PSIS			L.PSIS			R.Great.Tro			L.Great.Tro			R.Iliac.Crest			L.Iliac.Crest			V.Sacral			R.Thigh.Upper.Post			R.Thigh.Lower.Ant			R.Thigh.Lower.Post			R.Thigh.Upper.Ant			R.Knee.Lat			R.Knee.Med			R.Shank.Upper.Post			R.Shank.Lower.Ant			R.Shank.Lower.Post			R.Shank.Upper.Ant			R.Ankle.Lat			R.Ankle.Med			R.Heel.Upper			R.Heel.Med			R.Heel.Lat			R.Toe.Lat			R.Toe.Med			R.Toe.Tip			L.Thigh.Upper.Post			L.Thigh.Lower.Ant			L.Thigh.Lower.Post			L.Thigh.Upper.Ant			L.Knee.Lat			L.Knee.Med			L.Shank.Upper.Post			L.Shank.Lower.Ant			L.Shank.Lower.Post			L.Shank.Upper.Ant			L.Ankle.Lat			L.Ankle.Med			L.Heel.Upper			L.Heel.Med			L.Heel.Lat			L.Toe.Lat			L.Toe.Med			L.Toe.Tip			Cervical.Spine			Back			
		X1	Y1	Z1	X2	Y2	Z2	X3	Y3	Z3	X4	Y4	Z4	X5	Y5	Z5	X6	Y6	Z6	X7	Y7	Z7	X8	Y8	Z8	X9	Y9	Z9	X10	Y10	Z10	X11	Y11	Z11	X12	Y12	Z12	X13	Y13	Z13	X14	Y14	Z14	X15	Y15	Z15	X16	Y16	Z16	X17	Y17	Z17	X18	Y18	Z18	X19	Y19	Z19	X20	Y20	Z20	X21	Y21	Z21	X22	Y22	Z22	X23	Y23	Z23	X24	Y24	Z24	X25	Y25	Z25	X26	Y26	Z26	X27	Y27	Z27	X28	Y28	Z28	X29	Y29	Z29	X30	Y30	Z30	X31	Y31	Z31	X32	Y32	Z32	X33	Y33	Z33	X34	Y34	Z34	X35	Y35	Z35	X36	Y36	Z36	X37	Y37	Z37	X38	Y38	Z38	X39	Y39	Z39	X40	Y40	Z40	X41	Y41	Z41	X42	Y42	Z42	X43	Y43	Z43	X44	Y44	Z44	X45	Y45	Z45	X46	Y46	Z46	X47	Y47	Z47	X48	Y48	Z48	X49	Y49	Z49	X50	Y50	Z50	X51	Y51	Z51	

51	0.20833	-1182.8	1289.2	321.29	-1313.8	1493.6	489.38	-1324.8	1493.3	136.94	-1289.5	1811.6	313.05	NaN	NaN	NaN	NaN	NaN	NaN	-1425.5	1067.9	346.78	-1427.5	1074.4	267.25	-1290.5	971.34	495.25	-1307.8	978.76	137.89	-1323.8	1124.7	478.26	-1292	1125.7	156.96	-1441	1037.3	309.51	-1255.2	726.17	503.56	-1184.9	651.1	484.13	-1253.7	637.06	490.86	-1186	742.41	492.52	-1231.7	532.16	485.41	-1205.9	529.08	355.03	-1423.4	418.03	473.5	NaN	NaN	NaN	NaN	NaN	NaN	-1371.9	374.5	469.27	-1565.5	273.59	428.81	-1541.5	265.52	343.71	-1614.4	308.46	379.08	-1637.6	292.25	345.37	-1642.4	289.8	408.53	-1588.9	119.8	444.25	-1558.3	107.34	329.5	NaN	NaN	NaN	-1206.1	725.36	158.88	-1147.8	656.48	222.86	-1212.5	637.13	181.32	-1148	748.61	196.67	-1214.2	543.31	200.04	-1187.1	556.44	319.22	-1251.2	314.74	217.98	-1184.1	255.36	221.8	-1254.2	243.51	237	-1185.4	325.16	207.87	-1202.9	107.02	241.54	-1193.6	128.86	329.35	-1278.8	71.888	287.38	-1276.4	45.216	319.08	-1273.9	47.27	257.13	-1093.4	45.05	223.03	-1076.8	46.534	342.85	-1003.4	59.708	290.22	-1381.5	1547.8	314.97	-1431	1273.9	317
52	0.2125	-1177.9	1289.5	321.44	-1309	1494	489.39	-1319.1	1493.5	136.89	-1284.2	1812	312.83	NaN	NaN	NaN	NaN	NaN	NaN	-1420.6	1068.2	346.39	-1422.6	1074.8	266.87	-1285.5	971.64	494.96	-1302.7	979.32	137.58	-1319.1	1124.8	478.04	-1286.9	1126.2	156.77	-1436.2	1037.6	309.07	-1246.7	727.14	503.57	-1175.5	652.95	483.72	-1244	638.06	490.86	-1177.6	744.24	492.07	-1220.7	533.53	485.49	-1194.8	530.42	355.08	-1412.3	419.36	474.09	NaN	NaN	NaN	NaN	NaN	NaN	-1360.9	375.88	469.5	-1554.6	275.3	429.44	-1530.7	266.88	344.44	-1604.4	309.54	379.43	-1627.1	292.69	345.89	-1631.9	290.91	409.06	-1576.9	121.87	446.3	-1546.3	108.41	331.72	NaN	NaN	NaN	-1202.6	725.52	158.59	-1144.5	656.34	222.48	-1209.4	637.33	181.08	-1144.2	748.47	196.18	-1211.5	543.46	199.92	-1184.2	556.48	319	-1249.9	315.01	218.02	-1183.1	255.27	221.75	-1253.2	243.83	237.07	-1184	325.04	207.74	-1202.6	107.13	241.62	-1193.2	128.92	329.4	-1278.8	71.981	287.42	-1276.4	45.255	319.1	-1273.8	47.386	257.13	-1093.4	45.067	223.02	-1076.6	46.334	342.9	-1003.3	59.363	290.24	-1376.4	1548.3	314.85	-1426	1274.4	316.7
53	0.21667	-1172.9	1289.8	321.58	-1304.2	1494.4	489.4	-1313.4	1493.8	136.86	-1278.9	1812.4	312.62	NaN	NaN	NaN	NaN	NaN	NaN	-1415.8	1068.5	346.01	-1417.7	1075.2	266.5	-1280.5	971.97	494.68	-1297.7	979.86	137.3	-1314.3	1125.1	477.81	-1281.8	1126.6	156.58	-1431.3	1038	308.64	-1238.2	728.18	503.54	-1166.3	654.89	483.23	-1234.4	639.15	490.82	-1169.3	746.14	491.57	-1209.8	535	485.49	-1183.9	531.89	355.06	-1401.1	420.59	474.59	NaN	NaN	NaN	NaN	NaN	NaN	-1349.7	377.22	469.66	-1543.6	276.75	430.04	-1519.8	268	345.13	-1594.4	310.26	379.74	-1616.6	292.7	346.37	-1621.3	291.61	409.57	-1564.5	123.71	448.39	-1534	109.28	333.93	NaN	NaN	NaN	-1199.1	725.67	158.33	-1141.3	656.19	222.12	-1206.3	637.52	180.86	-1140.4	748.31	195.71	-1208.9	543.6	199.82	-1181.4	556.51	318.79	-1248.6	315.27	218.06	-1182.2	255.19	221.72	-1252.3	244.14	237.15	-1182.8	324.93	207.62	-1202.4	107.24	241.7	-1192.9	128.97	329.44	-1278.7	72.075	287.46	-1276.4	45.295	319.11	-1273.8	47.501	257.14	-1093.3	45.091	223.01	-1076.5	46.155	342.94	-1003.2	59.046	290.26	-1371.2	1548.7	314.74	-1421.1	1274.9	316.4
54	0.22083	-1168	1290.1	321.7	-1299.3	1494.8	489.42	-1307.7	1494.1	136.83	-1273.6	1812.8	312.44	NaN	NaN	NaN	NaN	NaN	NaN	-1411	1068.9	345.65	-1412.8	1075.6	266.15	-1275.6	972.35	494.4	-1292.6	980.37	137.04	-1309.6	1125.3	477.59	-1276.7	1127.1	156.39	-1426.4	1038.3	308.23	-1229.9	729.31	503.48	-1157.1	656.9	482.66	-1224.8	640.31	490.73	-1161	748.12	491.03	-1198.9	536.55	485.42	-1173.1	533.49	354.96	-1389.9	421.71	475	NaN	NaN	NaN	NaN	NaN	NaN	-1338.6	378.51	469.77	-1532.4	277.93	430.61	-1508.7	268.86	345.8	-1584.3	310.61	380.01	-1606	292.31	346.84	-1610.8	291.9	410.06	-1551.7	125.29	450.48	-1521.3	109.94	336.11	NaN	NaN	NaN	-1195.7	725.82	158.1	-1138.1	656.02	221.79	-1203.4	637.72	180.68	-1136.7	748.12	195.27	-1206.4	543.74	199.75	-1178.7	556.53	318.62	-1247.4	315.52	218.1	-1181.3	255.11	221.69	-1251.4	244.44	237.22	-1181.6	324.82	207.52	-1202.1	107.35	241.78	-1192.6	129.03	329.49	-1278.7	72.174	287.5	-1276.4	45.337	319.12	-1273.7	47.617	257.15	-1093.3	45.119	223	-1076.4	45.997	342.97	-1003.1	58.753	290.28	-1366	1549.2	314.64	-1416.2	1275.4	316.11
55	0.225	-1163.1	1290.5	321.82	-1294.5	1495.2	489.45	-1302	1494.4	136.81	-1268.3	1813.2	312.28	NaN	NaN	NaN	NaN	NaN	NaN	-1406.3	1069.2	345.31	-1407.9	1076	265.8	-1270.6	972.78	494.13	-1287.7	980.88	136.8	-1304.9	1125.6	477.37	-1271.6	1127.5	156.21	-1421.6	1038.7	307.84	-1221.6	730.52	503.37	-1147.9	658.98	482.04	-1215.2	641.55	490.6	-1152.7	750.15	490.46	-1188.2	538.19	485.28	-1162.4	535.2	354.79	-1378.6	422.73	475.32	NaN	NaN	NaN	NaN	NaN	NaN	-1327.4	379.75	469.82	-1521.1	278.83	431.16	-1497.5	269.47	346.45	-1574.2	310.6	380.24	-1595.2	291.52	347.3	-1600.2	291.8	410.54	-1538.5	126.62	452.57	-1508.3	110.39	338.24	NaN	NaN	NaN	-1192.3	725.97	157.92	-1135	655.83	221.49	-1200.5	637.91	180.51	-1133.1	747.92	194.87	-1204	543.88	199.69	-1176.2	556.54	318.47	-1246.3	315.76	218.15	-1180.4	255.04	221.67	-1250.6	244.73	237.29	-1180.4	324.73	207.43	-1201.9	107.47	241.85	-1192.4	129.08	329.53	-1278.7	72.276	287.53	-1276.4	45.382	319.13	-1273.7	47.731	257.16	-1093.2	45.152	222.99	-1076.2	45.858	342.99	-1003.1	58.483	290.3	-1360.8	1549.7	314.56	-1411.3	1275.8	315.81
56	0.22917	-1158.3	1290.8	321.92	-1289.7	1495.6	489.47	-1296.3	1494.6	136.8	-1263	1813.6	312.14	NaN	NaN	NaN	NaN	NaN	NaN	-1401.5	1069.6	344.98	-1403	1076.4	265.47	-1265.6	973.24	493.88	-1282.7	981.37	136.58	-1300.2	1125.9	477.16	-1266.5	1128	156.02	-1416.7	1039.1	307.48	-1213.5	731.8	503.23	-1138.9	661.13	481.35	-1205.7	642.86	490.43	-1144.6	752.24	489.84	-1177.6	539.91	485.08	-1151.9	537.02	354.54	-1367.4	423.62	475.57	NaN	NaN	NaN	NaN	NaN	NaN	-1316.1	380.93	469.84	-1509.6	279.45	431.7	-1486.1	269.82	347.07	-1564	310.24	380.46	-1584.3	290.35	347.75	-1589.5	291.3	411.03	-1525	127.68	454.65	-1495	110.65	340.32	-1451.4	62.194	387.33	-1188.9	726.13	157.76	-1132	655.63	221.22	-1197.6	638.11	180.37	-1129.4	747.71	194.51	-1201.7	544.01	199.66	-1173.7	556.54	318.35	-1245.2	316	218.19	-1179.5	254.99	221.66	-1249.7	245.02	237.36	-1179.3	324.65	207.36	-1201.6	107.59	241.92	-1192.1	129.12	329.57	-1278.6	72.382	287.57	-1276.4	45.431	319.14	-1273.6	47.845	257.18	-1093.2	45.188	222.99	-1076.1	45.739	343	-1003	58.234	290.32	-1355.7	1550.1	314.49	-1406.4	1276.3	315.52
57	0.23333	-1153.4	1291.2	322	-1284.8	1496	489.51	-1290.6	1495	136.79	-1257.6	1814	312.02	NaN	NaN	NaN	NaN	NaN	NaN	-1396.7	1070	344.67	-1398.1	1076.9	265.16	-1260.7	973.74	493.63	-1277.8	981.85	136.38	-1295.4	1126.3	476.94	-1261.4	1128.4	155.84	-1411.9	1039.5	307.13	-1205.4	733.15	503.05	-1129.9	663.32	480.62	-1196.4	644.23	490.23	-1136.5	754.37	489.2	-1167.1	541.69	484.82	-1141.6	538.93	354.23	-1356.2	424.4	475.74	NaN	NaN	NaN	NaN	NaN	NaN	-1304.8	382.04	469.81	-1498	279.77	432.23	-1474.6	269.91	347.67	-1553.6	309.52	380.67	-1573.3	288.83	348.22	-1578.7	290.43	411.55	-1511.2	128.47	456.7	-1481.5	110.71	342.32	-1438.6	62.012	389.08	-1185.6	726.28	157.64	-1129	655.42	220.98	-1194.8	638.32	180.26	-1125.9	747.48	194.19	-1199.4	544.15	199.63	-1171.4	556.53	318.25	-1244.1	316.23	218.23	-1178.7	254.94	221.65	-1248.9	245.3	237.41	-1178.2	324.58	207.3	-1201.4	107.72	241.99	-1191.8	129.17	329.59	-1278.6	72.493	287.6	-1276.4	45.486	319.15	-1273.6	47.958	257.19	-1093.1	45.224	222.98	-1076	45.639	343	-1002.9	58.004	290.34	-1350.5	1550.6	314.42	-1401.5	1276.8	315.23
58	0.2375	-1148.6	1291.6	322.07	-1280	1496.4	489.54	-1285	1495.3	136.8	-1252.3	1814.4	311.92	NaN	NaN	NaN	NaN	NaN	NaN	-1391.9	1070.4	344.37	-1393.2	1077.3	264.86	-1255.7	974.28	493.4	-1272.9	982.32	136.2	-1290.7	1126.7	476.74	-1256.3	1128.9	155.65	-1407	1039.9	306.81	-1197.6	734.56	502.84	-1121	665.56	479.84	-1187.1	645.66	489.99	-1128.5	756.55	488.53	-1156.6	543.53	484.5	-1131.4	540.92	353.86	-1345	425.06	475.84	NaN	NaN	NaN	NaN	NaN	NaN	-1293.5	383.08	469.75	-1486.2	279.81	432.76	-1463	269.75	348.26	-1543.1	308.46	380.89	-1562.2	286.95	348.7	-1567.9	289.18	412.08	-1497.1	128.99	458.72	-1467.8	110.59	344.24	-1425.2	61.83	390.86	-1182.3	726.44	157.56	-1126.1	655.21	220.78	-1192.1	638.52	180.16	-1122.3	747.23	193.92	-1197.3	544.29	199.62	-1169.2	556.51	318.18	-1243.1	316.45	218.26	-1177.9	254.89	221.65	-1248.1	245.57	237.46	-1177.1	324.52	207.25	-1201.1	107.84	242.05	-1191.6	129.21	329.61	-1278.6	72.609	287.63	-1276.3	45.547	319.15	-1273.5	48.07	257.21	-1093.1	45.261	222.98	-1075.8	45.557	342.98	-1002.9	57.791	290.35	-1345.2	1551	314.37	-1396.6	1277.3	314.95
59	0.24167	-1143.8	1292	322.13	-1275.1	1496.8	489.57	-1279.5	1495.6	136.8	-1247	1814.8	311.85	NaN	NaN	NaN	NaN	NaN	NaN	-1387.1	1070.9	344.1	-1388.3	1077.7	264.58	-1250.7	974.85	493.17	-1268	982.78	136.03	-1285.9	1127.1	476.53	-1251.3	1129.3	155.48	-1402.1	1040.3	306.51	-1189.8	736.02	502.6	-1112.2	667.84	479.03	-1177.9	647.13	489.72	-1120.5	758.75	487.82	-1146.4	545.41	484.13	-1121.3	542.98	353.42	-1333.7	425.59	475.88	NaN	NaN	NaN	NaN	NaN	NaN	-1282.2	384.04	469.66	-1474.3	279.55	433.29	-1451.2	269.34	348.83	-1532.5	307.05	381.12	-1550.9	284.73	349.21	-1556.8	287.56	412.65	-1482.7	129.25	460.68	-1453.8	110.3	346.06	-1411.1	61.649	392.66	-1179.1	726.61	157.5	-1123.2	654.98	220.61	-1189.4	638.74	180.08	-1118.8	746.98	193.69	-1195.1	544.42	199.62	-1167	556.48	318.13	-1242.1	316.67	218.28	-1177.1	254.85	221.66	-1247.4	245.83	237.5	-1176.1	324.47	207.22	-1200.9	107.97	242.12	-1191.4	129.25	329.63	-1278.6	72.73	287.66	-1276.3	45.616	319.16	-1273.5	48.18	257.22	-1093.1	45.297	222.97	-1075.6	45.492	342.95	-1002.8	57.594	290.37	-1340	1551.4	314.32	-1391.7	1277.8	314.67
60	0.24583	-1139	1292.4	322.17	-1270.2	1497.2	489.59	-1274	1496	136.82	-1241.7	1815.2	311.8	NaN	NaN	NaN	NaN	NaN	NaN	-1382.3	1071.3	343.84	-1383.4	1078.2	264.32	-1245.6	975.44	492.96	-1263.1	983.24	135.88	-1281.1	1127.5	476.34	-1246.2	1129.8	155.31	-1397.3	1040.8	306.23	-1182.2	737.52	502.33	-1103.5	670.15	478.19	-1168.8	648.64	489.42	-1112.7	760.97	487.1	-1136.2	547.33	483.71	-1111.4	545.1	352.93	-1322.5	425.99	475.85	NaN	NaN	NaN	NaN	NaN	NaN	-1270.9	384.93	469.54	-1462.2	279.01	433.82	-1439.3	268.68	349.38	-1521.6	305.3	381.38	-1539.5	282.19	349.74	-1545.7	285.59	413.25	-1468	129.24	462.59	-1439.7	109.84	347.78	-1396.5	61.47	394.44	-1175.9	726.77	157.48	-1120.4	654.75	220.48	-1186.7	638.95	180.02	-1115.4	746.71	193.51	-1193.1	544.56	199.63	-1165	556.45	318.1	-1241.1	316.88	218.29	-1176.4	254.82	221.67	-1246.6	246.09	237.53	-1175.1	324.42	207.2	-1200.7	108.09	242.18	-1191.2	129.28	329.64	-1278.5	72.855	287.69	-1276.4	45.691	319.17	-1273.4	48.288	257.24	-1093	45.33	222.97	-1075.4	45.439	342.91	-1002.8	57.411	290.38	-1334.7	1551.8	314.28	-1386.8	1278.3	314.39
61	0.25	-1134.2	1292.9	322.21	-1265.3	1497.6	489.62	-1268.5	1496.3	136.84	-1236.3	1815.6	311.78	NaN	NaN	NaN	NaN	NaN	NaN	-1377.4	1071.7	343.61	-1378.5	1078.7	264.08	-1240.6	976.05	492.76	-1258.3	983.7	135.75	-1276.3	1127.9	476.15	-1241.2	1130.3	155.15	-1392.4	1041.2	305.98	-1174.6	739.06	502.04	-1094.9	672.47	477.35	-1159.7	650.17	489.09	-1104.9	763.2	486.35	-1126.2	549.28	483.24	-1101.6	547.27	352.38	-1311.3	426.27	475.77	NaN	NaN	NaN	NaN	NaN	NaN	-1259.6	385.75	469.39	-1450	278.18	434.35	-1427.2	267.79	349.92	-1510.7	303.22	381.67	-1528	279.33	350.31	-1534.3	283.27	413.9	-1453	128.98	464.43	-1425.4	109.23	349.39	-1381.3	61.298	396.19	-1172.7	726.94	157.48	-1117.7	654.51	220.38	-1184.1	639.17	179.98	-1111.9	746.44	193.37	-1191.1	544.69	199.64	-1163	556.41	318.1	-1240.1	317.08	218.3	-1175.7	254.79	221.68	-1245.9	246.34	237.55	-1174.1	324.39	207.2	-1200.5	108.21	242.25	-1191	129.32	329.64	-1278.5	72.985	287.72	-1276.4	45.774	319.18	-1273.4	48.396	257.26	-1093	45.361	222.97	-1075.3	45.395	342.87	-1002.7	57.241	290.39	-1329.5	1552.2	314.24	-1381.9	1278.7	314.12
